<?xml version="1.0" encoding="UTF-8"?>
<!DOCTYPE svg PUBLIC "-//W3C//DTD SVG 1.1//EN" "http://www.w3.org/Graphics/SVG/1.1/DTD/svg11.dtd">
<!-- Creator: CorelDRAW 2018 (64 Bit) -->
<svg xmlns="http://www.w3.org/2000/svg" xml:space="preserve" width="32px" height="32px" version="1.1" style="shape-rendering:geometricPrecision; text-rendering:geometricPrecision; image-rendering:optimizeQuality; fill-rule:evenodd; clip-rule:evenodd"
viewBox="0 0 32 32"
 xmlns:xlink="http://www.w3.org/1999/xlink">
 <defs>
  <style type="text/css">
   <![CDATA[
    .fil0 {fill:#B28D53}
    .fil1 {fill:#2C4A78;fill-rule:nonzero}
   ]]>
  </style>
 </defs>
 <g id="Capa_x0020_1">
  <metadata id="CorelCorpID_0Corel-Layer"/>
  <g id="_2616243520160">
   <circle class="fil0" cx="16" cy="16" r="16"/>
   <path class="fil1" d="M23.78 21.53c-2.2,-0.18 -4.06,0.3 -5.46,0.88 1.86,-2.01 3.4,-2.38 3.41,-2.38 0.29,-0.06 0.49,-0.32 0.49,-0.61l0 -8.62c0.4,-0.21 1.02,-0.35 1.56,-0.41l0 11.14zm-15.56 0l0 -11.14c0.5,0.06 1.14,0.18 1.56,0.41l0 8.62c0,0.29 0.2,0.54 0.48,0.6 0.02,0.01 1.56,0.38 3.41,2.39 -1.39,-0.58 -3.25,-1.06 -5.45,-0.88zm2.79 -13.29c0.95,0.24 2.8,1.06 4.37,3.89l0 10.37c-1.83,-2.33 -3.55,-3.22 -4.37,-3.53l0 -10.73zm9.98 0l0 10.73c-0.82,0.31 -2.54,1.2 -4.37,3.53l0 -10.37c1.57,-2.83 3.42,-3.65 4.37,-3.89zm3.85 1.04c-0.12,-0.12 -0.29,-0.19 -0.45,-0.17 -0.16,0 -1.22,0.03 -2.17,0.35l0 -1.93c0,-0.35 -0.27,-0.62 -0.61,-0.62 0,0 0,0 -0.01,0 -0.17,0 -3.15,0.06 -5.6,3.85 -2.45,-3.79 -5.43,-3.85 -5.6,-3.85 -0.01,0 -0.01,0 -0.01,0 -0.34,0 -0.61,0.27 -0.61,0.62l0 1.93c-0.95,-0.32 -2.01,-0.35 -2.17,-0.35 -0.17,-0.02 -0.33,0.05 -0.44,0.17 -0.12,0.12 -0.19,0.28 -0.19,0.44l0 12.51c0,0.18 0.08,0.35 0.21,0.47 0.14,0.11 0.32,0.17 0.5,0.14 4.62,-0.67 7.87,2.07 7.9,2.1 0.01,0.01 0.02,0.01 0.02,0.01 0.01,0.01 0.02,0.02 0.03,0.03 0.01,0 0.02,0.01 0.03,0.01 0,0 0,0.01 0.01,0.01 0.01,0.01 0.03,0.02 0.04,0.02 0.02,0.01 0.04,0.02 0.06,0.03 0.01,0 0.02,0.01 0.03,0.01 0.01,0 0.01,0.01 0.02,0.01 0,0 0.01,0 0.01,0 0.01,0 0.01,0 0.02,0 0.04,0.02 0.09,0.02 0.14,0.02l0 0c0,0 0,0 0,0l0 0c0,0 0,0 0,0l0 0c0,0 0,0 0,0 0,0 0,0 0,0l0 0c0.05,0 0.1,0 0.14,-0.02 0.01,0 0.02,0 0.02,0 0,0 0.01,0 0.01,0 0.01,0 0.01,-0.01 0.02,-0.01 0.01,0 0.02,-0.01 0.04,-0.01 0.01,-0.01 0.03,-0.02 0.05,-0.03 0.02,0 0.03,-0.01 0.04,-0.02 0.01,0 0.01,-0.01 0.01,-0.01 0.01,0 0.02,-0.01 0.03,-0.01 0.01,-0.01 0.02,-0.02 0.03,-0.03 0.01,0 0.01,-0.01 0.02,-0.01 0.03,-0.03 3.25,-2.77 7.9,-2.1 0.18,0.03 0.36,-0.03 0.5,-0.14 0.13,-0.12 0.21,-0.29 0.21,-0.47l0 -12.51c0,-0.16 -0.07,-0.32 -0.18,-0.44z"/>
  </g>
 </g>
</svg>
